<svg width="31" height="32" viewBox="0 0 31 32" fill="none" xmlns="http://www.w3.org/2000/svg">
<circle opacity="0.55" cx="15.3082" cy="15.9245" r="15.3082" fill="#D5D6F5"/>
<path d="M15.6093 9.12085C19.3668 9.12085 22.4129 12.1669 22.4129 15.9245C22.4129 19.682 19.3668 22.7281 15.6093 22.7281C11.8517 22.7281 8.80566 19.682 8.80566 15.9245C8.80566 12.1669 11.8517 9.12085 15.6093 9.12085ZM15.7179 18.6459C14.3331 18.6459 13.0864 19.237 12.2162 20.1806C13.1466 20.9234 14.3261 21.3674 15.6093 21.3674C16.9493 21.3674 18.1761 20.8832 19.1245 20.0802C18.2597 19.1953 17.053 18.6459 15.7179 18.6459ZM15.6093 10.4816C12.6033 10.4816 10.1664 12.9184 10.1664 15.9245C10.1664 17.1563 10.5756 18.2926 11.2656 19.2048C12.3819 18.0228 13.9638 17.2852 15.7179 17.2852C17.4082 17.2852 18.9385 17.9701 20.0465 19.0774C20.6798 18.1878 21.0522 17.0997 21.0522 15.9245C21.0522 12.9184 18.6153 10.4816 15.6093 10.4816ZM15.6093 11.1619C17.1123 11.1619 18.3307 12.3804 18.3307 13.8834C18.3307 15.3864 17.1123 16.6048 15.6093 16.6048C14.1063 16.6048 12.8878 15.3864 12.8878 13.8834C12.8878 12.3804 14.1063 11.1619 15.6093 11.1619ZM15.6093 12.5227C14.8578 12.5227 14.2486 13.1319 14.2486 13.8834C14.2486 14.6349 14.8578 15.2441 15.6093 15.2441C16.3608 15.2441 16.97 14.6349 16.97 13.8834C16.97 13.1319 16.3608 12.5227 15.6093 12.5227Z" fill="#00205E"/>
</svg>
