<svg width="39" height="39" viewBox="0 0 39 39" fill="none" xmlns="http://www.w3.org/2000/svg">
<circle cx="19.169" cy="19.7747" r="19.1549" fill="#FEF1F6"/>
<path d="M22.0423 20.7324V13.0704C22.0423 12.3084 21.7396 11.5776 21.2007 11.0388C20.6619 10.4999 19.9311 10.1972 19.169 10.1972C18.407 10.1972 17.6762 10.4999 17.1374 11.0388C16.5985 11.5776 16.2958 12.3084 16.2958 13.0704V20.7324C15.4917 21.3355 14.8978 22.1762 14.5981 23.1356C14.2985 24.0949 14.3082 25.1242 14.6261 26.0777C14.9439 27.0312 15.5537 27.8605 16.369 28.4482C17.1844 29.0359 18.164 29.3521 19.169 29.3521C20.1741 29.3521 21.1537 29.0359 21.9691 28.4482C22.7844 27.8605 23.3942 27.0312 23.712 26.0777C24.0299 25.1242 24.0396 24.0949 23.74 23.1356C23.4403 22.1762 22.8463 21.3355 22.0423 20.7324ZM19.169 12.1127C19.4231 12.1127 19.6667 12.2136 19.8463 12.3932C20.0259 12.5728 20.1268 12.8164 20.1268 13.0704V15.9437H18.2113V13.0704C18.2113 12.8164 18.3122 12.5728 18.4918 12.3932C18.6714 12.2136 18.915 12.1127 19.169 12.1127Z" fill="#7C81DB"/>
</svg>
