<svg width="39" height="39" viewBox="0 0 39 39" fill="none" xmlns="http://www.w3.org/2000/svg">
<circle cx="19.1901" cy="19.8169" r="19.1549" fill="#FEF1F6"/>
<path d="M24.2184 9.76056H14.162C12.8289 9.76199 11.5508 10.2922 10.6081 11.2349C9.66549 12.1775 9.13528 13.4556 9.13385 14.7887V24.8451C9.13528 26.1782 9.66549 27.4563 10.6081 28.3989C11.5508 29.3416 12.8289 29.8718 14.162 29.8732H24.2184C25.5515 29.8718 26.8296 29.3416 27.7722 28.3989C28.7149 27.4563 29.2451 26.1782 29.2465 24.8451V14.7887C29.2451 13.4556 28.7149 12.1775 27.7722 11.2349C26.8296 10.2922 25.5515 9.76199 24.2184 9.76056ZM25.844 17.7518L24.3481 19.5121C24.1723 19.7206 23.9531 19.8882 23.7058 20.0033C23.4586 20.1183 23.1892 20.1781 22.9164 20.1783C22.5627 20.1779 22.2161 20.0787 21.9157 19.8919C21.2773 19.4977 20.2861 19.0277 19.1911 19.0277C18.0961 19.0277 17.1048 19.4977 16.4664 19.8919C16.0831 20.132 15.6259 20.2259 15.1789 20.1561C14.7319 20.0863 14.3251 19.8577 14.0332 19.5121L12.5364 17.7518C12.1525 17.3033 11.9587 16.7226 11.9963 16.1334C12.034 15.5443 12.3001 14.993 12.738 14.597C13.9878 13.459 16.1217 12.1022 19.1902 12.1022C22.2587 12.1022 24.3925 13.459 25.6424 14.597C26.0803 14.993 26.3464 15.5443 26.384 16.1334C26.4217 16.7226 26.2279 17.3033 25.844 17.7518Z" fill="#7C81DB"/>
</svg>
