<svg width="25" height="23" viewBox="0 0 25 23" fill="none" xmlns="http://www.w3.org/2000/svg">
<path d="M20.396 14.6619C20.8072 13.6632 21.0305 12.5939 21.0305 11.4189C21.0305 10.5729 20.9012 9.76219 20.678 9.01019C19.9142 9.18644 19.1152 9.28044 18.281 9.28044C14.6855 9.28044 11.5012 7.50619 9.5625 4.76844C8.51675 7.30644 6.51925 9.37444 4.00475 10.5024C3.95775 10.7962 3.95775 11.1134 3.95775 11.4189C3.95775 13.6845 4.85773 15.8572 6.45972 17.4592C8.0617 19.0612 10.2345 19.9612 12.5 19.9612C13.7337 19.9612 14.9205 19.6909 15.9897 19.2092C16.6595 20.4899 16.965 21.1244 16.9415 21.1244C15.0145 21.7707 13.5222 22.0879 12.5 22.0879C9.6565 22.0879 6.94225 20.9717 4.94475 18.9624C3.72275 17.7404 2.818 16.2482 2.31275 14.6267H0.75V9.28044H2.03075C3.01775 4.41594 7.33 0.749939 12.5 0.749939C15.32 0.749939 18.0343 1.86619 20.0435 3.87544C21.5357 5.35594 22.5345 7.24769 22.9457 9.28044H24.25V14.5562V14.5797V14.6267H24.1795L19.9965 18.4689L13.769 17.7639V15.8017H19.4442L20.396 14.6619ZM9.29225 11.1487C9.64475 11.1487 9.9855 11.2897 10.2322 11.5482C10.479 11.7949 10.62 12.1357 10.62 12.4882C10.62 12.8407 10.479 13.1814 10.2322 13.4282C9.9855 13.6749 9.64475 13.8159 9.29225 13.8159C8.552 13.8159 7.95275 13.2284 7.95275 12.4882C7.95275 11.7479 8.552 11.1487 9.29225 11.1487ZM15.696 11.1487C16.4362 11.1487 17.0238 11.7479 17.0238 12.4882C17.0238 13.2284 16.4362 13.8159 15.696 13.8159C14.9557 13.8159 14.3565 13.2284 14.3565 12.4882C14.3565 12.1329 14.4976 11.7922 14.7488 11.541C15 11.2898 15.3407 11.1487 15.696 11.1487Z" fill="#00205E"/>
</svg>
