<svg width="31" height="31" viewBox="0 0 31 31" fill="none" xmlns="http://www.w3.org/2000/svg">
<circle opacity="0.55" cx="15.3082" cy="15.3082" r="15.3082" fill="#D5D6F5"/>
<path d="M21.4435 17.3814C20.627 17.3814 19.7425 17.2453 18.994 16.9732H18.7899C18.5858 16.9732 18.4497 17.0412 18.3136 17.1773L16.8167 18.6742C14.9115 17.6536 13.2785 16.0886 12.326 14.1835L13.8229 12.6866C14.027 12.4824 14.095 12.2103 13.959 12.0061C13.7548 11.2577 13.6188 10.3731 13.6188 9.55663C13.6188 9.21643 13.2785 8.87622 12.9383 8.87622H10.5569C10.2167 8.87622 9.87646 9.21643 9.87646 9.55663C9.87646 15.9526 15.0476 21.1237 21.4435 21.1237C21.7838 21.1237 22.124 20.7835 22.124 20.4433V18.0618C22.124 17.7216 21.7838 17.3814 21.4435 17.3814ZM11.2373 10.2371H12.2579C12.326 10.8494 12.462 11.4618 12.5981 12.0061L11.7816 12.8226C11.5095 12.0061 11.3053 11.1216 11.2373 10.2371ZM20.7631 19.7629C19.8786 19.6948 18.994 19.4907 18.1775 19.2186L18.994 18.4021C19.5384 18.5381 20.1508 18.6742 20.7631 18.6742V19.7629ZM19.4023 15V13.6391H20.7631V15H19.4023ZM19.4023 12.2783V8.1958H20.7631V12.2783H19.4023Z" fill="black"/>
</svg>
