<svg width="33" height="30" viewBox="0 0 33 30" fill="none" xmlns="http://www.w3.org/2000/svg">
<path d="M27.1821 19.6311C27.7421 18.2711 28.0461 16.8151 28.0461 15.2151C28.0461 14.0631 27.8701 12.9591 27.5661 11.9351C26.5261 12.1751 25.4381 12.3031 24.3021 12.3031C19.4061 12.3031 15.0701 9.88707 12.4301 6.15907C11.0061 9.61507 8.28605 12.4311 4.86205 13.9671C4.79805 14.3671 4.79805 14.7991 4.79805 15.2151C4.79805 18.3001 6.02356 21.2587 8.20499 23.4401C10.3864 25.6216 13.3451 26.8471 16.4301 26.8471C18.1101 26.8471 19.7261 26.4791 21.1821 25.8231C22.0941 27.5671 22.5101 28.4311 22.4781 28.4311C19.8541 29.3111 17.8221 29.7431 16.4301 29.7431C12.5581 29.7431 8.86205 28.2231 6.14205 25.4871C4.47805 23.8231 3.24605 21.7911 2.55805 19.5831H0.430054V12.3031H2.17405C3.51805 5.67907 9.39005 0.687073 16.4301 0.687073C20.2701 0.687073 23.9661 2.20707 26.7021 4.94307C28.7341 6.95907 30.0941 9.53507 30.6541 12.3031H32.4301V19.4871V19.5191V19.5831H32.3341L26.6381 24.8151L18.1581 23.8551V21.1831H25.8861L27.1821 19.6311ZM12.0621 14.8471C12.5421 14.8471 13.0061 15.0391 13.3421 15.3911C13.6781 15.7271 13.8701 16.1911 13.8701 16.6711C13.8701 17.1511 13.6781 17.6151 13.3421 17.9511C13.0061 18.2871 12.5421 18.4791 12.0621 18.4791C11.0541 18.4791 10.2381 17.6791 10.2381 16.6711C10.2381 15.6631 11.0541 14.8471 12.0621 14.8471ZM20.7821 14.8471C21.7901 14.8471 22.5901 15.6631 22.5901 16.6711C22.5901 17.6791 21.7901 18.4791 20.7821 18.4791C19.7741 18.4791 18.9581 17.6791 18.9581 16.6711C18.9581 16.1873 19.1502 15.7234 19.4923 15.3813C19.8344 15.0392 20.2983 14.8471 20.7821 14.8471Z" fill="#CDD0E3"/>
</svg>
