<svg width="31" height="31" viewBox="0 0 31 31" fill="none" xmlns="http://www.w3.org/2000/svg">
<path d="M19.9774 6.77753H10.6024C8.53135 6.77753 6.85242 8.45646 6.85242 10.5275V19.9025C6.85242 21.9736 8.53135 23.6525 10.6024 23.6525H19.9774C22.0485 23.6525 23.7274 21.9736 23.7274 19.9025V10.5275C23.7274 8.45646 22.0485 6.77753 19.9774 6.77753Z" stroke="#CDD0E3" stroke-width="1.875" stroke-linejoin="round"/>
<path d="M10.6024 6.77753V2.55878C10.6024 2.43446 10.6518 2.31523 10.7397 2.22732C10.8276 2.13941 10.9468 2.09003 11.0712 2.09003H19.5087C19.633 2.09003 19.7522 2.13941 19.8401 2.22732C19.928 2.31523 19.9774 2.43446 19.9774 2.55878V6.77753M19.9774 23.6525V27.8713C19.9774 27.9956 19.928 28.1148 19.8401 28.2027C19.7522 28.2906 19.633 28.34 19.5087 28.34H11.0712C10.9468 28.34 10.8276 28.2906 10.7397 28.2027C10.6518 28.1148 10.6024 27.9956 10.6024 27.8713V23.6525" stroke="#CDD0E3" stroke-width="1.875" stroke-linejoin="round"/>
</svg>
