<svg width="16" height="16" viewBox="0 0 16 16" fill="none" xmlns="http://www.w3.org/2000/svg">
<g clip-path="url(#clip0_268_633)">
<mask id="path-1-inside-1_268_633" fill="white">
<path d="M6.8724 12.7426H7.84462V13.7148H6.8724V12.7426ZM7.35851 5.45095C7.69271 5.45095 8.00666 5.51425 8.30035 5.64084C8.59404 5.76743 8.84975 5.94213 9.06749 6.16493C9.28523 6.38773 9.45992 6.64598 9.59158 6.93967C9.72323 7.23336 9.78906 7.54731 9.78906 7.88151C9.78906 8.18533 9.74096 8.45117 9.64475 8.67904C9.54854 8.9069 9.42954 9.10945 9.28776 9.28668C9.14598 9.4639 8.989 9.62847 8.81684 9.78038C8.64468 9.93229 8.49023 10.0842 8.35352 10.2361C8.2168 10.388 8.09527 10.5475 7.98893 10.7146C7.8826 10.8817 7.83449 11.0716 7.84462 11.2843V11.7704H6.8724V11.2843C6.8724 10.9805 6.9205 10.7172 7.01671 10.4944C7.11292 10.2716 7.23192 10.069 7.3737 9.88672C7.51548 9.70443 7.67245 9.53733 7.84462 9.38542C8.01678 9.23351 8.17122 9.08413 8.30794 8.93728C8.44466 8.79044 8.56619 8.63093 8.67253 8.45877C8.77886 8.2866 8.82697 8.09418 8.81684 7.88151C8.81684 7.68403 8.77886 7.49667 8.70291 7.31944C8.62695 7.14222 8.52315 6.98777 8.39149 6.85612C8.25984 6.72446 8.10286 6.61813 7.92057 6.53711C7.73828 6.45609 7.55093 6.41811 7.35851 6.42318C7.16102 6.42318 6.97367 6.46115 6.79644 6.53711C6.61921 6.61306 6.46477 6.71687 6.33312 6.84852C6.20146 6.98018 6.09512 7.13715 6.01411 7.31944C5.93309 7.50174 5.89511 7.68909 5.90017 7.88151H4.92795C4.92795 7.54731 4.99125 7.23336 5.11784 6.93967C5.24443 6.64598 5.41659 6.39026 5.63433 6.17253C5.85207 5.95479 6.11032 5.78009 6.40907 5.64844C6.70783 5.51678 7.02431 5.45095 7.35851 5.45095ZM13.678 4.28125V15.6669H1.03906V0.111328H9.54601L13.678 4.28125ZM9.82704 4.00022H12.0297L9.82704 1.78234V4.00022ZM12.7057 14.6947V4.97244H8.85482V1.08355H2.01128V14.6947H12.7057Z"/>
</mask>
<path d="M6.8724 12.7426H7.84462V13.7148H6.8724V12.7426ZM7.35851 5.45095C7.69271 5.45095 8.00666 5.51425 8.30035 5.64084C8.59404 5.76743 8.84975 5.94213 9.06749 6.16493C9.28523 6.38773 9.45992 6.64598 9.59158 6.93967C9.72323 7.23336 9.78906 7.54731 9.78906 7.88151C9.78906 8.18533 9.74096 8.45117 9.64475 8.67904C9.54854 8.9069 9.42954 9.10945 9.28776 9.28668C9.14598 9.4639 8.989 9.62847 8.81684 9.78038C8.64468 9.93229 8.49023 10.0842 8.35352 10.2361C8.2168 10.388 8.09527 10.5475 7.98893 10.7146C7.8826 10.8817 7.83449 11.0716 7.84462 11.2843V11.7704H6.8724V11.2843C6.8724 10.9805 6.9205 10.7172 7.01671 10.4944C7.11292 10.2716 7.23192 10.069 7.3737 9.88672C7.51548 9.70443 7.67245 9.53733 7.84462 9.38542C8.01678 9.23351 8.17122 9.08413 8.30794 8.93728C8.44466 8.79044 8.56619 8.63093 8.67253 8.45877C8.77886 8.2866 8.82697 8.09418 8.81684 7.88151C8.81684 7.68403 8.77886 7.49667 8.70291 7.31944C8.62695 7.14222 8.52315 6.98777 8.39149 6.85612C8.25984 6.72446 8.10286 6.61813 7.92057 6.53711C7.73828 6.45609 7.55093 6.41811 7.35851 6.42318C7.16102 6.42318 6.97367 6.46115 6.79644 6.53711C6.61921 6.61306 6.46477 6.71687 6.33312 6.84852C6.20146 6.98018 6.09512 7.13715 6.01411 7.31944C5.93309 7.50174 5.89511 7.68909 5.90017 7.88151H4.92795C4.92795 7.54731 4.99125 7.23336 5.11784 6.93967C5.24443 6.64598 5.41659 6.39026 5.63433 6.17253C5.85207 5.95479 6.11032 5.78009 6.40907 5.64844C6.70783 5.51678 7.02431 5.45095 7.35851 5.45095ZM13.678 4.28125V15.6669H1.03906V0.111328H9.54601L13.678 4.28125ZM9.82704 4.00022H12.0297L9.82704 1.78234V4.00022ZM12.7057 14.6947V4.97244H8.85482V1.08355H2.01128V14.6947H12.7057Z" fill="#181A1E"/>
<path d="M6.8724 12.7426V11.7426H5.8724V12.7426H6.8724ZM7.84462 12.7426H8.84462V11.7426H7.84462V12.7426ZM7.84462 13.7148V14.7148H8.84462V13.7148H7.84462ZM6.8724 13.7148H5.8724V14.7148H6.8724V13.7148ZM7.84462 11.2843H8.84462V11.2605L8.84349 11.2367L7.84462 11.2843ZM7.84462 11.7704V12.7704H8.84462V11.7704H7.84462ZM6.8724 11.7704H5.8724V12.7704H6.8724V11.7704ZM8.81684 7.88151H7.81684V7.90531L7.81797 7.92908L8.81684 7.88151ZM7.35851 6.42318V7.42318H7.37166L7.38481 7.42283L7.35851 6.42318ZM5.90017 7.88151V8.88151H6.92684L6.89983 7.8552L5.90017 7.88151ZM4.92795 7.88151H3.92795V8.88151H4.92795V7.88151ZM13.678 4.28125H14.678V3.86971L14.3883 3.57739L13.678 4.28125ZM13.678 15.6669V16.6669H14.678V15.6669H13.678ZM1.03906 15.6669H0.0390625V16.6669H1.03906V15.6669ZM1.03906 0.111328V-0.888672H0.0390625V0.111328H1.03906ZM9.54601 0.111328L10.2563 -0.592537L9.9629 -0.888672H9.54601V0.111328ZM9.82704 4.00022H8.82704V5.00022H9.82704V4.00022ZM12.0297 4.00022V5.00022H14.4323L12.7393 3.29554L12.0297 4.00022ZM9.82704 1.78234L10.5366 1.07766L8.82704 -0.64366V1.78234H9.82704ZM12.7057 14.6947V15.6947H13.7057V14.6947H12.7057ZM12.7057 4.97244H13.7057V3.97244H12.7057V4.97244ZM8.85482 4.97244H7.85482V5.97244H8.85482V4.97244ZM8.85482 1.08355H9.85482V0.0835503H8.85482V1.08355ZM2.01128 1.08355V0.0835503H1.01128V1.08355H2.01128ZM2.01128 14.6947H1.01128V15.6947H2.01128V14.6947ZM6.8724 13.7426H7.84462V11.7426H6.8724V13.7426ZM6.84462 12.7426V13.7148H8.84462V12.7426H6.84462ZM7.84462 12.7148H6.8724V14.7148H7.84462V12.7148ZM7.8724 13.7148V12.7426H5.8724V13.7148H7.8724ZM7.35851 6.45095C7.56283 6.45095 7.74145 6.48888 7.90452 6.55917L8.69618 4.72252C8.27186 4.53962 7.82259 4.45095 7.35851 4.45095V6.45095ZM7.90452 6.55917C8.08173 6.63555 8.22814 6.73682 8.3523 6.86386L9.78268 5.466C9.47136 5.14744 9.10635 4.89932 8.69618 4.72252L7.90452 6.55917ZM8.3523 6.86386C8.48498 6.99963 8.59398 7.15891 8.67907 7.34873L10.5041 6.53061C10.3259 6.13305 10.0855 5.77584 9.78268 5.466L8.3523 6.86386ZM8.67907 7.34873C8.75083 7.5088 8.78906 7.68276 8.78906 7.88151H10.7891C10.7891 7.41185 10.6956 6.95793 10.5041 6.53061L8.67907 7.34873ZM8.78906 7.88151C8.78906 8.08137 8.75732 8.20995 8.7235 8.29006L10.566 9.06801C10.7246 8.69239 10.7891 8.28929 10.7891 7.88151H8.78906ZM8.7235 8.29006C8.65985 8.44082 8.58638 8.56263 8.50689 8.66198L10.0686 9.91137C10.2727 9.65627 10.4372 9.37298 10.566 9.06801L8.7235 8.29006ZM8.50689 8.66198C8.40159 8.79361 8.2846 8.91638 8.15522 9.03054L9.47846 10.5302C9.69341 10.3406 9.89037 10.1342 10.0686 9.91137L8.50689 8.66198ZM8.15522 9.03054C7.95775 9.20478 7.7755 9.38351 7.61022 9.56715L9.09681 10.9051C9.20497 10.7849 9.3316 10.6598 9.47846 10.5302L8.15522 9.03054ZM7.61022 9.56715C7.43762 9.75892 7.28228 9.96245 7.14527 10.1778L8.83259 11.2515C8.90826 11.1326 8.99597 11.0171 9.09681 10.9051L7.61022 9.56715ZM7.14527 10.1778C6.91967 10.5323 6.82658 10.9293 6.84575 11.3319L8.84349 11.2367C8.84308 11.2283 8.84344 11.2239 8.84352 11.223C8.8436 11.2222 8.84347 11.224 8.84248 11.2279C8.84148 11.2319 8.83995 11.2365 8.83789 11.2413C8.83583 11.246 8.83385 11.2495 8.83259 11.2515L7.14527 10.1778ZM6.84462 11.2843V11.7704H8.84462V11.2843H6.84462ZM7.84462 10.7704H6.8724V12.7704H7.84462V10.7704ZM7.8724 11.7704V11.2843H5.8724V11.7704H7.8724ZM7.8724 11.2843C7.8724 11.0836 7.90439 10.9611 7.93477 10.8908L6.09865 10.0979C5.93661 10.4732 5.8724 10.8773 5.8724 11.2843H7.8724ZM7.93477 10.8908C7.99915 10.7417 8.07577 10.6129 8.16305 10.5007L6.58435 9.27278C6.38806 9.52515 6.22669 9.80141 6.09865 10.0979L7.93477 10.8908ZM8.16305 10.5007C8.26681 10.3673 8.38106 10.2457 8.50624 10.1353L7.183 8.63558C6.96384 8.82895 6.76415 9.04159 6.58435 9.27278L8.16305 10.5007ZM8.50624 10.1353C8.69951 9.96472 8.87792 9.79261 9.03984 9.6187L7.57605 8.25586C7.46452 8.37565 7.33405 8.5023 7.183 8.63558L8.50624 10.1353ZM9.03984 9.6187C9.22158 9.42349 9.38285 9.21169 9.52332 8.98426L7.82173 7.93327C7.74953 8.05017 7.66774 8.15738 7.57605 8.25586L9.03984 9.6187ZM9.52332 8.98426C9.74142 8.63116 9.83491 8.23708 9.81571 7.83395L7.81797 7.92908C7.81837 7.93743 7.81804 7.94219 7.81788 7.94388C7.81773 7.9455 7.81768 7.94495 7.81821 7.94279C7.81876 7.94061 7.81958 7.93812 7.82057 7.93579C7.82155 7.93348 7.82216 7.93257 7.82173 7.93327L9.52332 8.98426ZM9.81684 7.88151C9.81684 7.55196 9.75266 7.23028 9.62205 6.92552L7.78376 7.71336C7.80506 7.76306 7.81684 7.81609 7.81684 7.88151H9.81684ZM9.62205 6.92552C9.4978 6.6356 9.32342 6.37383 9.0986 6.14901L7.68439 7.56323C7.72288 7.60172 7.7561 7.64883 7.78376 7.71336L9.62205 6.92552ZM9.0986 6.14901C8.87412 5.92454 8.61309 5.75058 8.32671 5.6233L7.51443 7.45092C7.59264 7.48568 7.64555 7.52439 7.68439 7.56323L9.0986 6.14901ZM8.32671 5.6233C8.01354 5.48411 7.67882 5.4144 7.3322 5.42352L7.38481 7.42283C7.42303 7.42182 7.46302 7.42807 7.51443 7.45092L8.32671 5.6233ZM7.35851 5.42318C7.02895 5.42318 6.70728 5.48736 6.40252 5.61796L7.19036 7.45625C7.24006 7.43495 7.29309 7.42318 7.35851 7.42318V5.42318ZM6.40252 5.61796C6.1126 5.74222 5.85083 5.9166 5.62601 6.14142L7.04022 7.55563C7.07871 7.51714 7.12582 7.48391 7.19036 7.45625L6.40252 5.61796ZM5.62601 6.14142C5.40153 6.36589 5.22757 6.62693 5.10029 6.91331L6.92792 7.72558C6.96267 7.64738 7.00139 7.59447 7.04022 7.55563L5.62601 6.14142ZM5.10029 6.91331C4.96111 7.22648 4.8914 7.56119 4.90052 7.90782L6.89983 7.8552C6.89882 7.81699 6.90507 7.77699 6.92792 7.72558L5.10029 6.91331ZM5.90017 6.88151H4.92795V8.88151H5.90017V6.88151ZM5.92795 7.88151C5.92795 7.67719 5.96587 7.49857 6.03616 7.3355L4.19951 6.54384C4.01662 6.96815 3.92795 7.41743 3.92795 7.88151H5.92795ZM6.03616 7.3355C6.11464 7.15343 6.21661 7.00446 6.34144 6.87963L4.92722 5.46542C4.61658 5.77607 4.37422 6.13853 4.19951 6.54384L6.03616 7.3355ZM6.34144 6.87963C6.46646 6.75461 6.61996 6.6483 6.81233 6.56352L6.00581 4.73335C5.60067 4.91189 5.23768 5.15497 4.92722 5.46542L6.34144 6.87963ZM6.81233 6.56352C6.98097 6.48921 7.15979 6.45095 7.35851 6.45095V4.45095C6.88882 4.45095 6.43469 4.54436 6.00581 4.73335L6.81233 6.56352ZM12.678 4.28125V15.6669H14.678V4.28125H12.678ZM13.678 14.6669H1.03906V16.6669H13.678V14.6669ZM2.03906 15.6669V0.111328H0.0390625V15.6669H2.03906ZM1.03906 1.11133H9.54601V-0.888672H1.03906V1.11133ZM8.83567 0.815193L12.9676 4.98511L14.3883 3.57739L10.2563 -0.592537L8.83567 0.815193ZM9.82704 5.00022H12.0297V3.00022H9.82704V5.00022ZM12.7393 3.29554L10.5366 1.07766L9.11751 2.48701L11.3202 4.70489L12.7393 3.29554ZM8.82704 1.78234V4.00022H10.827V1.78234H8.82704ZM13.7057 14.6947V4.97244H11.7057V14.6947H13.7057ZM12.7057 3.97244H8.85482V5.97244H12.7057V3.97244ZM9.85482 4.97244V1.08355H7.85482V4.97244H9.85482ZM8.85482 0.0835503H2.01128V2.08355H8.85482V0.0835503ZM1.01128 1.08355V14.6947H3.01128V1.08355H1.01128ZM2.01128 15.6947H12.7057V13.6947H2.01128V15.6947Z" fill="black" mask="url(#path-1-inside-1_268_633)"/>
</g>
<defs>
<clipPath id="clip0_268_633">
<rect width="15.5556" height="15.5556" fill="white" transform="translate(0.0664062 0.111328)"/>
</clipPath>
</defs>
</svg>
