<svg width="39" height="39" viewBox="0 0 39 39" fill="none" xmlns="http://www.w3.org/2000/svg">
<circle cx="19.8451" cy="19.7323" r="19.1549" fill="#FEF1F6"/>
<path d="M29.9013 17.3978C29.9013 23.683 20.5821 28.7705 20.1853 28.9806C20.0807 29.0369 19.9637 29.0663 19.845 29.0663C19.7262 29.0663 19.6093 29.0369 19.5047 28.9806C19.2039 28.819 13.7986 25.8658 11.1831 21.7176C11.1493 21.6632 11.1307 21.6009 11.1291 21.5369C11.1276 21.473 11.1431 21.4098 11.1741 21.3539C11.2052 21.2979 11.2506 21.2513 11.3056 21.2188C11.3607 21.1863 11.4235 21.1691 11.4874 21.169H14.8168C14.9351 21.169 15.0516 21.1399 15.1559 21.0841C15.2602 21.0284 15.3491 20.9477 15.4148 20.8493L16.2534 19.5923L18.5287 23.0042C18.6158 23.135 18.7435 23.2335 18.8921 23.2848C19.0406 23.336 19.2019 23.3372 19.3511 23.288C19.5095 23.2344 19.6449 23.1286 19.7354 22.9881L20.9476 21.169H22.7182C22.8167 21.1692 22.9141 21.1491 23.0046 21.1101C23.095 21.0711 23.1764 21.0139 23.2437 20.942C23.3111 20.8702 23.363 20.7853 23.3961 20.6926C23.4293 20.5999 23.443 20.5013 23.4365 20.4031C23.4205 20.2184 23.3352 20.0467 23.1978 19.9223C23.0604 19.7979 22.8811 19.7301 22.6958 19.7323H20.5633C20.445 19.7323 20.3285 19.7614 20.2242 19.8172C20.1199 19.8729 20.0309 19.9536 19.9653 20.052L19.1267 21.309L16.8514 17.8971C16.7642 17.7661 16.6364 17.6674 16.4876 17.6162C16.3389 17.5649 16.1774 17.5639 16.0281 17.6133C15.8701 17.6673 15.735 17.7729 15.6447 17.9132L14.4325 19.7323H10.4647C10.388 19.7326 10.3132 19.7082 10.2513 19.6628C10.1894 19.6174 10.1437 19.5533 10.1209 19.48C9.90431 18.807 9.79226 18.1048 9.78864 17.3978C9.7903 15.9219 10.3773 14.5069 11.421 13.4633C12.4646 12.4196 13.8796 11.8326 15.3555 11.8309C17.2097 11.8309 18.8331 12.6283 19.845 13.976C20.8569 12.6283 22.4803 11.8309 24.3344 11.8309C25.8103 11.8326 27.2253 12.4196 28.269 13.4633C29.3126 14.5069 29.8996 15.9219 29.9013 17.3978Z" fill="#7C81DB"/>
</svg>
