<svg width="29" height="29" viewBox="0 0 29 29" fill="none" xmlns="http://www.w3.org/2000/svg">
<path fill-rule="evenodd" clip-rule="evenodd" d="M28.6705 11.1403L20.1535 2.58163C17.0905 -0.481148 12.1404 -0.481148 9.0774 2.58163L0.56045 11.1403C0.286095 11.414 0.203677 11.8273 0.351884 12.186C0.500092 12.5448 0.849495 12.778 1.23607 12.7759H2.67945V22.1062C2.68509 25.8876 5.73415 28.9516 9.4971 28.9572H10.961C11.4884 28.9516 11.913 28.5203 11.913 27.9903V20.1311H17.318V27.9903C17.3179 28.5203 17.7425 28.9516 18.27 28.9572H19.7338C23.4968 28.9516 26.5458 25.8876 26.5515 22.1062V12.7759H27.9948C28.3814 12.778 28.7308 12.5448 28.879 12.186C29.0272 11.8273 28.9448 11.414 28.6705 11.1403ZM10.4262 3.94161C11.5361 2.82471 13.0423 2.19711 14.613 2.19711C16.1837 2.19711 17.69 2.82471 18.7998 3.94161L25.6789 10.8544H3.54713L10.4262 3.94161ZM19.7463 27.0348C22.452 27.0291 24.644 24.8263 24.6497 22.1073V12.7771H4.60618V22.1073C4.61181 24.8263 6.80383 27.0291 9.50956 27.0348H10.0112V19.1653C10.0168 18.6353 10.4459 18.2086 10.9734 18.2086H18.2824C18.8099 18.2086 19.2391 18.6353 19.2447 19.1653V27.0348H19.7463Z" fill="#371B34"/>
<path d="M28.6705 11.1403L20.1535 2.58163C17.0905 -0.481148 12.1404 -0.481148 9.0774 2.58163L0.56045 11.1403C0.286095 11.414 0.203677 11.8273 0.351884 12.186C0.500092 12.5448 0.849495 12.778 1.23607 12.7759H2.67945V22.1062C2.68509 25.8876 5.73415 28.9516 9.4971 28.9572H10.961C11.4884 28.9516 11.913 28.5203 11.913 27.9903V20.1311H17.318V27.9903C17.3179 28.5203 17.7425 28.9516 18.27 28.9572H19.7338C23.4968 28.9516 26.5458 25.8876 26.5515 22.1062V12.7759H27.9948C28.3814 12.778 28.7308 12.5448 28.879 12.186C29.0272 11.8273 28.9448 11.414 28.6705 11.1403Z" fill="#371B34"/>
</svg>
