<svg width="33" height="33" viewBox="0 0 33 33" fill="none" xmlns="http://www.w3.org/2000/svg">
<path d="M16.86 14.215V29.5484M16.86 14.215C15.6027 13.5484 11.4427 12.215 4.86005 12.215V26.8817C7.94605 26.8817 14.666 26.8817 16.86 29.5484M16.86 14.215C18.1174 13.5484 22.2774 12.215 28.86 12.215V26.8817C25.774 26.8817 19.054 26.8817 16.86 29.5484" stroke="#CDD0E3" stroke-width="2.66667" stroke-linecap="round" stroke-linejoin="round"/>
<path d="M16.8601 13.5483C19.8056 13.5483 22.1934 11.1605 22.1934 8.21499C22.1934 5.26947 19.8056 2.88165 16.8601 2.88165C13.9145 2.88165 11.5267 5.26947 11.5267 8.21499C11.5267 11.1605 13.9145 13.5483 16.8601 13.5483Z" stroke="#CDD0E3" stroke-width="2.66667"/>
</svg>
