<svg width="25" height="25" viewBox="0 0 25 25" fill="none" xmlns="http://www.w3.org/2000/svg">
<path d="M12.5 6.24996C14.1576 6.24996 15.7473 6.90844 16.9194 8.08054C18.0915 9.25265 18.75 10.8424 18.75 12.5C18.75 14.8125 17.4896 16.8333 15.625 17.9166V19.7916C15.625 20.0679 15.5153 20.3328 15.3199 20.5282C15.1246 20.7235 14.8596 20.8333 14.5834 20.8333H10.4167C10.1404 20.8333 9.87547 20.7235 9.68012 20.5282C9.48477 20.3328 9.37502 20.0679 9.37502 19.7916V17.9166C7.51044 16.8333 6.25002 14.8125 6.25002 12.5C6.25002 10.8424 6.9085 9.25265 8.0806 8.08054C9.25271 6.90844 10.8424 6.24996 12.5 6.24996ZM14.5834 21.875V22.9166C14.5834 23.1929 14.4736 23.4578 14.2783 23.6532C14.0829 23.8485 13.818 23.9583 13.5417 23.9583H11.4584C11.1821 23.9583 10.9171 23.8485 10.7218 23.6532C10.5264 23.4578 10.4167 23.1929 10.4167 22.9166V21.875H14.5834ZM20.8334 11.4583H23.9584V13.5416H20.8334V11.4583ZM1.04169 11.4583H4.16669V13.5416H1.04169V11.4583ZM13.5417 1.04163V4.16663H11.4584V1.04163H13.5417ZM5.12502 3.64579L7.34377 5.87496L5.8646 7.34371L3.64585 5.13538L5.12502 3.64579ZM17.6563 5.86454L19.8646 3.64579L21.3542 5.13538L19.1354 7.34371L17.6563 5.86454Z" fill="black" fill-opacity="0.3"/>
</svg>
