<svg width="20" height="20" viewBox="0 0 20 20" fill="none" xmlns="http://www.w3.org/2000/svg">
<path d="M16.6668 9.99996V4.79079C16.6669 4.72501 16.654 4.65987 16.6288 4.5991C16.6036 4.53832 16.5667 4.48311 16.5202 4.43663L13.8968 1.81329C13.8032 1.7195 13.6761 1.66674 13.5435 1.66663H3.8335C3.70089 1.66663 3.57371 1.7193 3.47994 1.81307C3.38617 1.90684 3.3335 2.03402 3.3335 2.16663V17.8333C3.3335 17.9659 3.38617 18.0931 3.47994 18.1868C3.57371 18.2806 3.70089 18.3333 3.8335 18.3333H10.8335M6.66683 8.33329H13.3335M6.66683 4.99996H10.0002M6.66683 11.6666H9.16683" stroke="#181A1E" stroke-width="1.25" stroke-linecap="round" stroke-linejoin="round"/>
<path d="M13.3335 1.6665V4.49984C13.3335 4.63245 13.3862 4.75962 13.4799 4.85339C13.5737 4.94716 13.7009 4.99984 13.8335 4.99984H16.6668M16.6602 12.604L18.7902 13.1448C19.0118 13.2015 19.1677 13.4032 19.161 13.6315C19.0177 18.4298 16.2502 19.1665 16.2502 19.1665C16.2502 19.1665 13.4827 18.4298 13.3393 13.6315C13.3368 13.5203 13.3721 13.4116 13.4395 13.3232C13.5068 13.2347 13.6023 13.1718 13.7102 13.1448L15.8402 12.604C16.1093 12.5357 16.391 12.5357 16.6602 12.604Z" stroke="#181A1E" stroke-width="1.25" stroke-linecap="round" stroke-linejoin="round"/>
</svg>
