<svg width="40" height="40" viewBox="0 0 40 40" fill="none" xmlns="http://www.w3.org/2000/svg">
<circle cx="20" cy="20" r="20" fill="#FEF1F6"/>
<path d="M27.0002 15H19.0002V22H11.0002V13H9.00024V28H11.0002V25H29.0002V28H31.0002V19C31.0002 17.9391 30.5788 16.9217 29.8287 16.1716C29.0785 15.4214 28.0611 15 27.0002 15ZM15.0002 21C15.7959 21 16.559 20.6839 17.1216 20.1213C17.6842 19.5587 18.0002 18.7956 18.0002 18C18.0002 17.2044 17.6842 16.4413 17.1216 15.8787C16.559 15.3161 15.7959 15 15.0002 15C14.2046 15 13.4415 15.3161 12.8789 15.8787C12.3163 16.4413 12.0002 17.2044 12.0002 18C12.0002 18.7956 12.3163 19.5587 12.8789 20.1213C13.4415 20.6839 14.2046 21 15.0002 21Z" fill="#7C81DB"/>
</svg>
