<svg width="39" height="40" viewBox="0 0 39 40" fill="none" xmlns="http://www.w3.org/2000/svg">
<circle cx="19.3521" cy="19.8592" r="19.1549" fill="#FEF1F6"/>
<g clip-path="url(#clip0_132_331)">
<path d="M21.3826 17.9437H26.0564V16.2198H22.5894L20.6739 13.0305C20.3866 12.5516 19.8694 12.226 19.2756 12.226C19.1032 12.226 18.9499 12.2547 18.7967 12.3026L13.6057 13.9212V18.9015H15.3297V15.3865L17.3505 14.7544L13.6057 29.4367H15.3297L18.0784 21.6693L20.3099 24.6479V29.4367H22.0339V23.2975L19.6491 18.9493L20.3482 16.2006M21.2677 12.0057C22.2254 12.0057 22.9916 11.2395 22.9916 10.2817C22.9916 9.324 22.2254 8.5578 21.2677 8.5578C20.3099 8.5578 19.5437 9.324 19.5437 10.2817C19.5437 11.2395 20.3099 12.0057 21.2677 12.0057Z" fill="#7C81DB"/>
</g>
<defs>
<clipPath id="clip0_132_331">
<rect width="22.9859" height="22.9859" fill="white" transform="translate(7.85919 8.36627)"/>
</clipPath>
</defs>
</svg>
