<svg width="23" height="24" viewBox="0 0 23 24" fill="none" xmlns="http://www.w3.org/2000/svg">
<path d="M14.3663 13.1972V5.53523C14.3663 4.7732 14.0635 4.04238 13.5247 3.50354C12.9859 2.9647 12.255 2.66199 11.493 2.66199C10.731 2.66199 10.0002 2.9647 9.46133 3.50354C8.92249 4.04238 8.61978 4.7732 8.61978 5.53523V13.1972C7.81572 13.8002 7.22179 14.641 6.92211 15.6003C6.62243 16.5597 6.6322 17.589 6.95003 18.5425C7.26786 19.496 7.87764 20.3253 8.693 20.913C9.50835 21.5007 10.4879 21.8169 11.493 21.8169C12.4981 21.8169 13.4777 21.5007 14.293 20.913C15.1084 20.3253 15.7182 19.496 16.036 18.5425C16.3538 17.589 16.3636 16.5597 16.0639 15.6003C15.7642 14.641 15.1703 13.8002 14.3663 13.1972ZM11.493 4.57748C11.747 4.57748 11.9906 4.67839 12.1702 4.858C12.3499 5.03761 12.4508 5.28122 12.4508 5.53523V8.40847H10.5353V5.53523C10.5353 5.28122 10.6362 5.03761 10.8158 4.858C10.9954 4.67839 11.239 4.57748 11.493 4.57748Z" fill="#7C81DB"/>
</svg>
